<svg xmlns="http://www.w3.org/2000/svg" viewBox="0 0 64 64">
  <rect width="64" height="64" fill="#000800"/>
  <path d="M20 5h24l15 15v24L44 59H20L5 44V20z" fill="none" stroke="#5dff7e" stroke-width="3"/>
  <path d="M32 10v44M10 32h44M16.5 16.5l31 31M47.5 16.5l-31 31" stroke="#24743a" stroke-width="1.5"/>
  <circle cx="32" cy="32" r="13" fill="#000800" stroke="#5dff7e" stroke-width="2"/>
  <path d="M26 24h9.2c4 0 6.8 2.1 6.8 5.4 0 2.6-1.5 4.3-4 4.9 3 .5 4.7 2.3 4.7 5.2 0 4.1-3.3 6.5-8.4 6.5H25v-4.5h9.1c2.4 0 3.7-.9 3.7-2.6 0-1.6-1.3-2.4-3.8-2.4h-5v-4.2h5c2 0 3.1-.7 3.1-2.1 0-1.3-1.1-2-3.2-2H26z" fill="#5dff7e" transform="translate(-2 -3)"/>
</svg>
