<svg xmlns="http://www.w3.org/2000/svg" viewBox="0 0 1042 1042">
  <path fill="#33ff66" transform="translate(83 152) scale(.84)" d="M251 34q-36 5-66 25c-11 7-28 24-35 35q-21 34-12 60 11 33-23 87c-10 17-11 21-7 26q3 5 11 2 6-3 32-30c32-31 37-35 53-46q28-18 45-41c9-12 14-15 27-15 8 0 10 0 15 2q36 19 16 87c-9 26-27 63-50 98-18 28-29 42-79 106-55 70-69 91-85 122-38 74-39 142-3 196q38 58 126 71c23 3 42 5 103 8 30 2 213 2 249 0 123-6 179-17 218-43a741 741 0 0 0 157-157l2-5-20 5 1-2c2-1 27-39 28-43l2-7v-4l-8 4c-61 31-134 50-178 46q-21-2-22-4-2-1 31-24c49-36 60-45 70-58q11-13-6-19c-5-2-8-2-22-3l-16-1 3-7q13-20 8-22l-21-3h-6l9-10c11-11 15-18 18-29q2-11-4-17c-3-4-7-5-21-4l-12-1 10-10c12-13 16-21 17-33 0-7 0-8-2-11-4-6-8-7-27-8a133 133 0 0 0-33 2l4-5q21-26 12-37l-6-4c-4-2-6-3-18-3-19 1-33 4-57 14l-12 4 3-5c8-10 17-24 17-30q3-10-14-9c-10 0-17 3-41 15-17 8-24 12-41 25l-12 8 4-10q8-17 3-20c-8-5-50 17-78 39a300 300 0 0 0-46 51c-19 29-34 45-62 70-31 27-40 36-80 76-41 40-45 43-56 47q-11 5-17-1l-3-4v-10q0-16 8-37c4-10 18-38 48-93 56-103 67-125 78-160 20-57 22-113 7-155-13-34-36-63-64-78q-16-8-34-11c-10-2-28-3-36-2"/>
</svg>
